# xmcd
#
# Track frame offsets:
#	150
#	33844
#	48113
#	65071
#	78480
#	92218
#	110586
#	128484
#	147453
#	161320
#	183835
#	212214
#
# Disc length: 3075 seconds
#
# Revision: 0
# Processed by: cddbd v1.4PL0 Copyright (c) Steve Scherf et al.
# Submitted via: audiograbber 1.80.04
#
DISCID=a00c010c
DTITLE=Various Artist - Chalry's soul junction
DYEAR=2000
DGENRE=Acid Jazz
TTITLE0=Curtis Mayfield - Right on for the darkness
TTITLE1=Isaac' Redd' Holt Unlimited - Do it baby
TTITLE2=Stanley Cowell - Travelin' man
TTITLE3=Arnold Blair - Trying to get next to you
TTITLE4=The Backyards Heavies - Soul junction
TTITLE5=Natural Four - Count on me
TTITLE6=S.O.U.L. - Burning spear
TTITLE7=Aaron Neville - Hercules
TTITLE8=African Music Machine - Black water gold
TTITLE9=Leroy Hutson - lucky fellow
TTITLE10=Maceo and all the King's men - Thank you for letting be myself again
TTITLE11=Young Holt Unlimited - Hey Pancho
EXTD=
EXTT0=
EXTT1=
EXTT2=
EXTT3=
EXTT4=
EXTT5=
EXTT6=
EXTT7=
EXTT8=
EXTT9=
EXTT10=
EXTT11=
PLAYORDER=
